<?xml version="1.0" standalone="no"?>
<!DOCTYPE svg PUBLIC "-//W3C//DTD SVG 20010904//EN"
 "http://www.w3.org/TR/2001/REC-SVG-20010904/DTD/svg10.dtd">
<svg version="1.0" xmlns="http://www.w3.org/2000/svg"
 width="16.000000pt" height="16.000000pt" viewBox="0 0 16.000000 16.000000"
 preserveAspectRatio="xMidYMid meet">
<metadata>
Created by potrace 1.11, written by Peter Selinger 2001-2013
</metadata>
<g transform="translate(0.000000,16.000000) scale(0.002078,-0.002078)"
fill="#000000" stroke="none">
<path d="M2888 6665 c-3 -3 -45 -10 -138 -21 -30 -3 -58 -8 -61 -10 -4 -2 -24
-6 -45 -10 -49 -7 -208 -51 -250 -69 -18 -7 -35 -11 -38 -7 -3 3 -6 0 -6 -6 0
-7 -3 -11 -7 -10 -12 2 -95 -31 -153 -62 -190 -99 -270 -152 -425 -280 -36
-30 -207 -201 -250 -251 -123 -140 -236 -323 -328 -529 -15 -34 -76 -205 -77
-215 0 -3 0 -6 -1 -7 -4 -16 -39 -179 -44 -210 -3 -18 -7 -44 -10 -58 -15 -79
-24 -335 -14 -412 3 -26 3 -51 0 -56 -3 -4 -29 -20 -57 -34 -84 -44 -156 -86
-189 -110 -5 -5 -39 -29 -75 -55 -154 -112 -357 -341 -464 -523 -68 -116 -167
-351 -182 -430 -3 -14 -9 -38 -14 -55 -4 -16 -12 -48 -16 -70 -4 -22 -8 -44
-9 -50 -26 -122 -25 -507 1 -615 3 -14 8 -36 10 -50 5 -39 12 -69 29 -129 88
-305 267 -597 499 -810 22 -20 51 -47 66 -61 38 -36 96 -80 170 -131 198 -134
465 -242 680 -274 25 -4 61 -10 80 -13 56 -9 4728 -8 4795 1 101 14 108 15
160 27 159 35 347 119 498 222 64 43 81 57 160 128 290 261 459 581 505 960
13 108 7 361 -12 455 -2 11 -6 38 -10 60 -8 46 -43 166 -61 210 -7 17 -21 50
-31 75 -23 57 -124 234 -135 238 -5 2 -9 8 -9 13 0 18 -98 137 -185 224 -88
88 -220 194 -280 225 -16 9 -42 23 -56 33 -49 33 -268 122 -326 133 -12 2 -34
9 -48 14 l-26 10 21 29 c21 31 81 157 95 201 13 41 28 100 31 120 14 93 16
125 16 211 0 305 -131 577 -379 786 -54 46 -64 53 -69 53 -3 0 -25 13 -48 29
-88 61 -265 122 -391 136 -166 19 -342 1 -485 -50 -46 -16 -182 -83 -190 -94
-3 -3 -29 -22 -57 -41 -29 -19 -53 -38 -53 -42 0 -18 -21 -6 -29 15 -18 47
-85 182 -97 197 -7 8 -13 20 -14 25 -3 18 -142 225 -151 225 -5 0 -9 6 -9 13
0 24 -179 208 -295 304 -126 104 -124 103 -134 103 -5 0 -11 4 -13 8 -1 5 -43
33 -93 63 -78 48 -118 70 -245 134 -34 17 -169 67 -172 64 -2 -1 -12 2 -23 8
-45 24 -236 68 -390 89 -45 7 -441 14 -447 9z m785 -1723 c22 -22 28 -60 14
-79 -5 -7 -7 -13 -4 -13 3 0 -6 -39 -19 -87 -14 -49 -27 -104 -30 -123 -3 -19
-10 -42 -14 -50 -4 -8 -8 -18 -8 -23 -1 -4 -6 -33 -13 -65 -15 -66 -12 -56
-27 -107 -6 -22 -13 -51 -16 -65 -3 -14 -9 -40 -15 -57 -5 -18 -6 -34 -3 -36
12 -6 511 -1 517 5 4 4 36 123 60 228 2 8 22 89 45 180 23 91 43 176 46 190
11 56 37 110 58 116 11 4 130 7 264 6 212 0 246 -2 262 -17 22 -20 29 -54 18
-84 -4 -12 -10 -32 -12 -44 -2 -12 -14 -60 -26 -107 -12 -47 -23 -92 -25 -100
-2 -8 -8 -35 -15 -60 -7 -25 -14 -54 -16 -65 -7 -36 -13 -58 -37 -152 -15 -59
-19 -94 -12 -96 5 -2 153 -3 329 -2 296 1 320 -1 342 -18 13 -10 24 -26 24
-35 0 -16 -40 -185 -77 -327 -8 -33 -16 -68 -17 -77 -1 -10 -5 -21 -9 -24 -4
-4 -7 -19 -7 -34 0 -15 -10 -38 -23 -52 l-23 -25 -343 0 c-205 0 -346 -4 -352
-10 -7 -7 -48 -159 -73 -268 -1 -5 -5 -19 -9 -30 -3 -11 -8 -31 -11 -45 -9
-46 -14 -66 -30 -118 -8 -29 -12 -53 -8 -53 4 -1 151 -3 327 -4 176 0 330 -5
342 -9 45 -15 37 -75 -53 -411 -3 -11 -7 -29 -9 -40 -2 -11 -4 -20 -5 -20 -1
0 -3 -11 -6 -25 -8 -47 -26 -78 -47 -84 -12 -3 -175 -6 -362 -6 l-341 0 -34
-137 c-40 -163 -38 -153 -43 -178 -3 -11 -17 -65 -31 -120 -13 -55 -27 -111
-29 -125 -13 -72 -40 -142 -60 -154 -17 -10 -80 -13 -268 -12 -273 1 -291 5
-292 61 0 30 11 93 18 105 2 3 6 17 9 31 2 13 32 133 65 266 34 133 61 247 61
253 0 7 -85 10 -260 10 l-260 0 -6 -27 c-3 -16 -20 -82 -36 -148 -17 -66 -32
-128 -34 -137 -2 -10 -6 -26 -8 -35 -5 -23 -64 -256 -77 -305 -19 -75 -17 -74
-305 -74 l-256 1 -19 24 c-25 30 -24 30 12 174 17 67 32 129 34 137 2 8 8 35
15 60 7 25 13 52 15 60 2 8 14 60 28 115 14 55 28 112 31 128 l6 27 -330 0
c-317 0 -331 1 -350 20 -22 22 -25 58 -9 110 5 19 12 46 15 60 2 14 7 32 10
40 4 8 8 24 10 35 9 51 64 260 74 285 7 16 23 32 38 37 15 5 177 8 359 8 l333
-1 10 31 c8 25 28 105 45 178 2 10 7 27 10 37 3 10 8 27 10 37 2 10 11 47 20
83 9 36 18 79 21 95 3 17 10 35 15 42 7 7 6 14 -2 18 -6 4 -159 8 -340 9 -227
1 -331 4 -339 12 -21 21 -21 72 0 151 21 79 27 102 35 138 2 11 8 35 14 53 5
17 7 32 5 32 -3 0 -2 6 3 13 4 6 8 17 9 22 18 89 36 144 51 157 12 10 98 13
358 13 269 1 346 4 359 14 9 7 14 16 11 20 -2 4 2 28 10 53 7 26 16 59 19 75
3 15 24 102 46 193 23 91 43 172 45 180 13 60 45 164 53 172 19 19 74 23 304
21 215 -2 233 -3 251 -21z"/>
<path d="M3389 3639 c-5 -3 -12 -15 -14 -27 -9 -43 -13 -58 -30 -122 -17 -64
-20 -79 -30 -121 -2 -11 -7 -29 -10 -39 -3 -10 -8 -29 -11 -42 -3 -13 -6 -27
-8 -33 -1 -5 -8 -36 -15 -67 -7 -32 -13 -61 -14 -65 -1 -5 116 -8 260 -8 l261
-1 11 51 c6 27 14 61 16 75 3 14 10 39 15 55 5 17 12 41 14 55 3 14 10 43 16
65 6 22 13 51 16 65 3 14 13 53 24 88 16 54 16 64 4 69 -20 7 -493 10 -505 2z"/>
</g>
</svg>
