<?xml version="1.0" encoding="utf-8"?>
<!-- Generator: Adobe Illustrator 21.0.0, SVG Export Plug-In . SVG Version: 6.00 Build 0)  -->
<svg version="1.1" id="Layer_1" xmlns="http://www.w3.org/2000/svg" xmlns:xlink="http://www.w3.org/1999/xlink" x="0px" y="0px"
	 viewBox="0 0 384.6 282" style="enable-background:new 0 0 384.6 282;" xml:space="preserve">
<style type="text/css">
	.st0{fill:#5390FF;}
</style>
<g>
	<path class="st0" d="M367.9,157.3c-11.2-14-25.4-23-42.8-27.1c5.5-8.3,8.2-17.5,8.2-27.6c0-14.2-5-26.2-15-36.3s-22.1-15-36.3-15
		c-12.7,0-23.8,4.1-33.3,12.4C240.9,44.5,228.3,29,211,17.4C193.7,5.8,174.7,0,153.8,0c-28.3,0-52.5,10-72.5,30s-30,44.2-30,72.5
		c0,1.7,0.1,4.6,0.4,8.6c-15.8,7.3-28.3,18.4-37.7,33.1c-9.3,14.7-14,30.7-14,48.1c0,24.7,8.8,45.8,26.3,63.4
		C43.9,273.2,65,282,89.7,282h217.9c21.2,0,39.4-7.5,54.4-22.5s22.5-33.2,22.5-54.4C384.6,187.2,379,171.3,367.9,157.3z
		 M267.5,125.8l-5.8,23.1c-0.5,1.6-1.5,2.5-3.2,2.5h-33.7l-6.6,26.4h32.1c1,0,1.9,0.4,2.6,1.2c0.7,1,0.9,1.9,0.6,2.9l-5.8,23.1
		c-0.3,1.6-1.4,2.5-3.2,2.5h-33.7l-8.4,33.8c-0.5,1.6-1.5,2.5-3.2,2.5h-23.1c-1.1,0-2-0.4-2.7-1.2c-0.6-0.8-0.8-1.8-0.6-2.9l8-32.2
		h-26.2l-8.4,33.8c-0.5,1.6-1.5,2.5-3.2,2.5h-23.2c-1,0-1.9-0.4-2.6-1.2c-0.6-0.8-0.8-1.8-0.6-2.9l8-32.2H92.7c-1,0-1.9-0.4-2.6-1.2
		c-0.6-0.8-0.8-1.8-0.6-2.9l5.8-23.1c0.5-1.6,1.5-2.5,3.2-2.5h33.7l6.6-26.4h-32.1c-1,0-1.9-0.4-2.6-1.2c-0.7-1-0.9-1.9-0.6-2.9
		l5.8-23.1c0.3-1.6,1.4-2.5,3.2-2.5h33.7l8.4-33.8c0.5-1.6,1.6-2.5,3.3-2.5h23.1c1,0,1.9,0.4,2.6,1.2c0.6,0.8,0.8,1.8,0.6,2.9
		l-8,32.2h26.2l8.4-33.8c0.5-1.6,1.6-2.5,3.3-2.5H237c1,0,1.9,0.4,2.6,1.2c0.6,0.8,0.8,1.8,0.6,2.9l-8,32.2h32.1
		c1,0,1.9,0.4,2.6,1.2C267.5,123.8,267.7,124.7,267.5,125.8z"/>
	<polygon class="st0" points="162.1,177.8 188.3,177.8 194.9,151.4 168.7,151.4 	"/>
</g>
</svg>
