<?xml version="1.0" encoding="utf-8"?>
<!-- Generator: Adobe Illustrator 21.0.0, SVG Export Plug-In . SVG Version: 6.00 Build 0)  -->
<svg version="1.1" id="Layer_1" xmlns="http://www.w3.org/2000/svg" xmlns:xlink="http://www.w3.org/1999/xlink" x="0px" y="0px"
	 viewBox="0 0 566.9 181.4" style="enable-background:new 0 0 566.9 181.4;" xml:space="preserve">
<style type="text/css">
	.st0{fill:#5390FF;}
	.st1{fill:#FFFFFF;}
</style>
<g>
	<g>
		<path class="st0" d="M209.6-149.9c-5.5-6.9-12.6-11.4-21.2-13.4c2.7-4.1,4.1-8.7,4.1-13.6c0-7-2.5-13-7.4-17.9s-10.9-7.4-17.9-7.4
			c-6.3,0-11.8,2-16.5,6.1c-3.9-9.5-10.1-17.2-18.6-22.9c-8.6-5.7-17.9-8.6-28.3-8.6c-14,0-26,4.9-35.8,14.8S53.1-191,53.1-177
			c0,0.8,0,2.3,0.2,4.3c-7.8,3.6-14,9.1-18.6,16.4c-4.6,7.3-6.9,15.2-6.9,23.8c0,12.2,4.4,22.6,13,31.3c8.7,8.7,19.1,13,31.3,13
			h107.7c10.5,0,19.5-3.7,26.9-11.1c7.4-7.4,11.1-16.4,11.1-26.9C217.9-135.1,215.1-143,209.6-149.9z M160-165.5l-2.9,11.4
			c-0.2,0.8-0.7,1.2-1.6,1.2h-16.7l-3.3,13.1h15.9c0.5,0,0.9,0.2,1.3,0.6c0.3,0.5,0.4,0.9,0.3,1.4l-2.9,11.4
			c-0.1,0.8-0.7,1.2-1.6,1.2H132l-4.2,16.7c-0.2,0.8-0.7,1.2-1.6,1.2h-11.4c-0.5,0-1-0.2-1.3-0.6c-0.3-0.4-0.4-0.9-0.3-1.4l4-15.9
			h-13l-4.2,16.7c-0.2,0.8-0.7,1.2-1.6,1.2H87c-0.5,0-0.9-0.2-1.3-0.6c-0.3-0.4-0.4-0.9-0.3-1.4l4-15.9H73.6c-0.5,0-0.9-0.2-1.3-0.6
			c-0.3-0.4-0.4-0.9-0.3-1.4l2.9-11.4c0.2-0.8,0.7-1.2,1.6-1.2h16.7l3.3-13.1H80.5c-0.5,0-0.9-0.2-1.3-0.6c-0.3-0.5-0.4-0.9-0.3-1.4
			l2.9-11.4c0.1-0.8,0.7-1.2,1.6-1.2H100l4.2-16.7c0.2-0.8,0.8-1.2,1.6-1.2h11.4c0.5,0,0.9,0.2,1.3,0.6c0.3,0.4,0.4,0.9,0.3,1.4
			l-4,15.9h13l4.2-16.7c0.2-0.8,0.8-1.2,1.6-1.2h11.3c0.5,0,0.9,0.2,1.3,0.6c0.3,0.4,0.4,0.9,0.3,1.4l-4,15.9h15.9
			c0.5,0,0.9,0.2,1.3,0.6C160-166.5,160.1-166,160-165.5z"/>
		<polygon class="st0" points="107.9,-139.8 120.8,-139.8 124.1,-152.8 111.1,-152.8 		"/>
	</g>
	<g>
		<path class="st0" d="M312.6-212c28.8,0,51.2,18.2,51.2,46.7c0,34.2-26.2,61.4-60.6,61.4c-29,0-51.4-18.2-51.4-46.9
			C251.8-184.9,278.1-212,312.6-212z M311.2-192.3c-20.2,0-36.2,17.7-36.2,40.1c0,17.7,12.7,28.5,29.5,28.5
			c20.1,0,36.2-17.7,36.2-40.1C340.7-181.3,328-192.3,311.2-192.3z"/>
		<path class="st0" d="M368.2-126.5c44.2-25.1,67.1-38.9,67.1-53.6c0-7.5-7.8-12.2-18.8-12.2c-11.4,0-19.9,4.2-26,9.4l-9.4-16
			c9.2-8,23.2-13,37-13c21.5,0,40.6,10.5,40.6,30.4c0,20.7-21.8,38.5-55.6,56.1h43.6l-4.2,19.6h-78.7L368.2-126.5z"/>
		<path class="st0" d="M466.3-132.3c3.3,5,9.6,8.6,16.8,8.6c10.2,0,16.1-6.6,18.5-16.8l15.4-69.9h22.3l-15.4,70.2
			c-5.5,24.8-17.7,36.2-39.2,36.2c-11.8,0-23.7-3.8-30.4-11.8L466.3-132.3z"/>
	</g>
</g>
<g>
	<g>
		<path class="st1" d="M209.6,98.8c-5.5-6.9-12.6-11.4-21.2-13.4c2.7-4.1,4.1-8.7,4.1-13.6c0-7-2.5-13-7.4-17.9s-10.9-7.4-17.9-7.4
			c-6.3,0-11.8,2-16.5,6.1c-3.9-9.5-10.1-17.2-18.6-22.9S114.1,21,103.8,21c-14,0-26,4.9-35.8,14.8S53.1,57.7,53.1,71.7
			c0,0.8,0,2.3,0.2,4.3c-7.8,3.6-14,9.1-18.6,16.4c-4.6,7.3-6.9,15.2-6.9,23.8c0,12.2,4.4,22.6,13,31.3c8.7,8.7,19.1,13,31.3,13
			h107.7c10.5,0,19.5-3.7,26.9-11.1c7.4-7.4,11.1-16.4,11.1-26.9C217.9,113.5,215.1,105.7,209.6,98.8z M160,83.2l-2.9,11.4
			c-0.2,0.8-0.7,1.2-1.6,1.2h-16.7l-3.3,13.1h15.9c0.5,0,0.9,0.2,1.3,0.6c0.3,0.5,0.4,0.9,0.3,1.4l-2.9,11.4
			c-0.1,0.8-0.7,1.2-1.6,1.2H132l-4.2,16.7c-0.2,0.8-0.7,1.2-1.6,1.2h-11.4c-0.5,0-1-0.2-1.3-0.6c-0.3-0.4-0.4-0.9-0.3-1.4l4-15.9
			h-13l-4.2,16.7c-0.2,0.8-0.7,1.2-1.6,1.2H87c-0.5,0-0.9-0.2-1.3-0.6c-0.3-0.4-0.4-0.9-0.3-1.4l4-15.9H73.6c-0.5,0-0.9-0.2-1.3-0.6
			c-0.3-0.4-0.4-0.9-0.3-1.4l2.9-11.4c0.2-0.8,0.7-1.2,1.6-1.2h16.7l3.3-13.1H80.5c-0.5,0-0.9-0.2-1.3-0.6c-0.3-0.5-0.4-0.9-0.3-1.4
			l2.9-11.4c0.1-0.8,0.7-1.2,1.6-1.2H100l4.2-16.7c0.2-0.8,0.8-1.2,1.6-1.2h11.4c0.5,0,0.9,0.2,1.3,0.6c0.3,0.4,0.4,0.9,0.3,1.4
			l-4,15.9h13l4.2-16.7c0.2-0.8,0.8-1.2,1.6-1.2h11.3c0.5,0,0.9,0.2,1.3,0.6c0.3,0.4,0.4,0.9,0.3,1.4l-4,15.9h15.9
			c0.5,0,0.9,0.2,1.3,0.6C160,82.2,160.1,82.7,160,83.2z"/>
		<polygon class="st1" points="107.9,108.9 120.8,108.9 124.1,95.9 111.1,95.9 		"/>
	</g>
	<g>
		<path class="st1" d="M312.6,36.6c28.8,0,51.2,18.2,51.2,46.7c0,34.2-26.2,61.4-60.6,61.4c-29,0-51.4-18.2-51.4-46.9
			C251.8,63.8,278.1,36.6,312.6,36.6z M311.2,56.4C291,56.4,275,74.1,275,96.5c0,17.7,12.7,28.5,29.5,28.5
			c20.1,0,36.2-17.7,36.2-40.1C340.7,67.4,328,56.4,311.2,56.4z"/>
		<path class="st1" d="M368.2,122.2c44.2-25.1,67.1-38.9,67.1-53.6c0-7.5-7.8-12.2-18.8-12.2c-11.4,0-19.9,4.2-26,9.4l-9.4-16
			c9.2-8,23.2-13,37-13c21.5,0,40.6,10.5,40.6,30.4c0,20.7-21.8,38.5-55.6,56.1h43.6l-4.2,19.6h-78.7L368.2,122.2z"/>
		<path class="st1" d="M466.3,116.4c3.3,5,9.6,8.6,16.8,8.6c10.2,0,16.1-6.6,18.5-16.8l15.4-69.9h22.3l-15.4,70.2
			c-5.5,24.8-17.7,36.2-39.2,36.2c-11.8,0-23.7-3.8-30.4-11.8L466.3,116.4z"/>
	</g>
</g>
<rect x="224.5" y="-469.9" style="fill:none;" width="973" height="128.6"/>
<text transform="matrix(1 0 0 1 224.5 -392.5449)" class="st0" style="font-family:'ProximaNova-BoldIt'; font-size:116px;">O2J</text>
</svg>
